<?xml version="1.0" encoding="UTF-8"?>
<svg id="Layer_1" data-name="Layer 1" xmlns="http://www.w3.org/2000/svg" viewBox="0 0 240.94 239.81">
  <defs>
    <style>
      .cls-1 {
        fill: #000;
      }

      .cls-1, .cls-2 {
        stroke-width: 0px;
      }

      .cls-2 {
        fill: #fff;
      }
    </style>
  </defs>
  <rect class="cls-1" width="240.94" height="239.81"/>
  <g>
    <polygon class="cls-2" points="122.85 72.23 108.79 96.59 80.65 96.59 66.59 72.23 80.65 47.86 108.79 47.86 122.85 72.23"/>
    <polygon class="cls-2" points="95.47 119.86 81.41 144.22 53.28 144.22 39.21 119.86 53.28 95.5 81.41 95.5 95.47 119.86"/>
    <polygon class="cls-2" points="150.01 119.76 135.95 144.13 107.82 144.13 93.75 119.76 107.82 95.4 135.95 95.4 150.01 119.76"/>
    <polygon class="cls-2" points="177.21 167.36 163.15 191.73 135.02 191.73 120.95 167.36 135.02 143 163.15 143 177.21 167.36"/>
    <polygon class="cls-2" points="123 167.34 108.94 191.7 80.8 191.7 66.74 167.34 80.8 142.98 108.94 142.98 123 167.34"/>
    <polygon class="cls-2" points="204.04 119.72 189.97 144.08 161.84 144.08 147.77 119.72 161.84 95.35 189.97 95.35 204.04 119.72"/>
    <polygon class="cls-2" points="177.17 72.24 163.1 96.6 134.97 96.6 120.9 72.24 134.97 47.87 163.1 47.87 177.17 72.24"/>
  </g>
</svg>