<?xml version="1.0" encoding="UTF-8"?>
<svg id="Layer_1" data-name="Layer 1" xmlns="http://www.w3.org/2000/svg" viewBox="0 0 33.46 33.3">
  <defs>
    <style>
      .cls-1 {
        fill: #000;
      }

      .cls-1, .cls-2 {
        stroke-width: 0px;
      }

      .cls-2 {
        fill: #fff;
      }
    </style>
  </defs>
  <rect class="cls-1" width="33.46" height="33.3"/>
  <g>
    <polygon class="cls-2" points="16.71 8.2 14.43 12.14 9.88 12.14 7.6 8.2 9.88 4.25 14.43 4.25 16.71 8.2"/>
    <polygon class="cls-2" points="12.28 15.91 10 19.85 5.45 19.85 3.17 15.91 5.45 11.96 10 11.96 12.28 15.91"/>
    <polygon class="cls-2" points="21.11 15.89 18.83 19.83 14.28 19.83 12 15.89 14.28 11.95 18.83 11.95 21.11 15.89"/>
    <polygon class="cls-2" points="25.51 23.6 23.23 27.54 18.68 27.54 16.4 23.6 18.68 19.65 23.23 19.65 25.51 23.6"/>
    <polygon class="cls-2" points="16.73 23.59 14.46 27.54 9.9 27.54 7.63 23.59 9.9 19.65 14.46 19.65 16.73 23.59"/>
    <polygon class="cls-2" points="29.85 15.88 27.57 19.83 23.02 19.83 20.74 15.88 23.02 11.94 27.57 11.94 29.85 15.88"/>
    <polygon class="cls-2" points="25.5 8.2 23.22 12.14 18.67 12.14 16.39 8.2 18.67 4.25 23.22 4.25 25.5 8.2"/>
  </g>
</svg>